<svg xmlns="http://www.w3.org/2000/svg" viewBox="0 0 64 64" fill="none">
  <defs>
    <linearGradient id="bg" x1="10" y1="8" x2="54" y2="56" gradientUnits="userSpaceOnUse">
      <stop stop-color="#17324D" />
      <stop offset="1" stop-color="#214C73" />
    </linearGradient>
    <linearGradient id="sun" x1="20" y1="16" x2="42" y2="38" gradientUnits="userSpaceOnUse">
      <stop stop-color="#FFD56A" />
      <stop offset="1" stop-color="#FF8A3D" />
    </linearGradient>
    <linearGradient id="shield" x1="26" y1="28" x2="38" y2="46" gradientUnits="userSpaceOnUse">
      <stop stop-color="#F6FBFF" />
      <stop offset="1" stop-color="#D8EAF7" />
    </linearGradient>
  </defs>

  <rect x="4" y="4" width="56" height="56" rx="18" fill="url(#bg)" />

  <g opacity="0.95">
    <path d="M32 14.5 34.1 19.2 39 17.6 37.4 22.5 42.1 24.6 37.4 26.7 39 31.6 34.1 30 32 34.7 29.9 30 25 31.6 26.6 26.7 21.9 24.6 26.6 22.5 25 17.6 29.9 19.2 32 14.5Z" fill="#FFE8A3" />
    <circle cx="32" cy="24.6" r="8.8" fill="url(#sun)" />
  </g>

  <path
    d="M32 27.5c4.9 3.1 9.2 3.6 12 3.7v8.6c0 8.3-6.2 13.8-12 16.7-5.8-2.9-12-8.4-12-16.7v-8.6c2.8-.1 7.1-.6 12-3.7Z"
    fill="url(#shield)"
  />
  <path
    d="M32 32.7v12.2"
    stroke="#17324D"
    stroke-linecap="round"
    stroke-width="3.3"
  />
  <path
    d="M26.7 38.5c1.1-2.1 3.2-3.4 5.3-3.4s4.2 1.3 5.3 3.4"
    stroke="#17324D"
    stroke-linecap="round"
    stroke-width="3.3"
  />
</svg>
